<svg xmlns="http://www.w3.org/2000/svg" xmlns:xlink="http://www.w3.org/1999/xlink" viewBox="0 0 1080 1080"><defs><radialGradient id="Degradado_sin_nombre_17" cx="546.28" cy="1045.68" r="960.51" gradientUnits="userSpaceOnUse"><stop offset="0" stop-color="#cc7d30"/><stop offset="1" stop-color="#ffca28"/></radialGradient></defs><g id="Capa_2" data-name="Capa 2"><path d="M1080,538.82c0,256.5-179.14,471.15-419.14,525.66q-12.68,2.89-25.58,5.16a539.63,539.63,0,0,1-55.11,6.82q-14.35,1-28.9,1.31-5.14.11-10.32.1a545,545,0,0,1-64.89-3.86q-13.1-1.58-26-3.77-21.48-3.65-42.36-9-14.18-3.59-28-7.93A534.27,534.27,0,0,1,311,1026.47q-11.82-5.58-23.32-11.72-6.57-3.5-13-7.18-7.32-4.16-14.48-8.55c-3.31-2-6.58-4.07-9.84-6.17q-6.14-3.92-12.16-8-2.2-1.5-4.4-3-11.59-8-22.75-16.69A542.35,542.35,0,0,1,105.51,856.63q-8.33-11.37-16-23.19c-.79-1.19-1.57-2.39-2.34-3.59q-4.06-6.33-8-12.79-2.88-4.75-5.65-9.57-4.34-7.5-8.41-15.17-3.38-6.3-6.57-12.7Q52.72,768,47.44,756a533.82,533.82,0,0,1-25.37-70.61q-3.94-14-7.14-28.27-4.65-20.72-7.67-42-1.84-12.95-3-26.09-2.29-24.79-2.31-50.2,0-13,.61-25.86.68-14.54,2.13-28.86A536.7,536.7,0,0,1,13,429.59q2.64-12.82,5.88-25.43C78.66,171.61,289.74-.23,541-.23,838.66-.23,1080,241.11,1080,538.82Z" fill="url(#Degradado_sin_nombre_17)"/></g><g id="Capa_3" data-name="Capa 3"><path d="M407,1004.57v-.27a70.54,70.54,0,0,0-.13-8.12,77.41,77.41,0,0,0-131.17-50.12,76.45,76.45,0,0,0-17.86,26.54c-.1.23-.19.47-.28.7s-.09.21-.13.32l-7.19,19.23c3.26,2.1,6.53,4.15,9.84,6.17q7.17,4.4,14.48,8.55l9-24.07.15-.35a48.58,48.58,0,0,1,11.44-17,49.54,49.54,0,0,1,70,1l.52.54A49.47,49.47,0,0,1,379,997.75l.07,6.49v.25c0,.25,0,.51,0,.76l.57,48.08q13.86,4.34,28,7.93ZM129.71,683.09a77.12,77.12,0,0,0-49.84-23.27h-.08c-1.47-.11-3-.18-4.46-.2h-.06l-60.34-2.49q3.18,14.28,7.14,28.27l52.12,2.15h.4l3.37.16A49.5,49.5,0,0,1,93.1,782.76l-4.78,1.68-.66.24-.06,0-22.48,7.62q4.08,7.66,8.41,15.17,2.77,4.82,5.65,9.57l17.71-6,.28-.1c2.29-.7,4.37-1.43,6.36-2.26l.51-.23a77.49,77.49,0,0,0,25.67-125.38Z" fill="#fff"/><path d="M213.75,698.6c-19.38,18.81-24.61,47.25-25.58,67.78a86.16,86.16,0,0,1-47.34,72.32l-35.32,17.93q-8.33-11.37-16-23.19l38.71-19.65c18.78-9.54,31.08-28.21,32.07-48.74,1.45-30.71,9.94-56.68,24.73-76L20,519.07,2.51,513q.68-14.54,2.13-28.86l27.66,9.68a14,14,0,0,1,5.41,3.45L214,678.84A14,14,0,0,1,213.75,698.6Z" fill="#fff"/><path d="M580.17,1076.46q-14.35,1-28.9,1.31l-5.41-17.08L379.73,889.6c-18.82,13.61-44.26,21.57-74.36,23.16a63.29,63.29,0,0,0-52,32.82l-19.61,36.21q-11.59-8-22.75-16.69l17.78-32.83a91.45,91.45,0,0,1,75.15-47.42c20-1,47.58-5.92,65.85-23.16a13.85,13.85,0,0,1,5.36-3.17l2-.64a14,14,0,0,1,14.25,3.59L568.2,1043.59a14,14,0,0,1,3.3,5.5Z" fill="#fff"/><path d="M363,549.18A14,14,0,0,1,349.57,539c-18.78-67.19-5.09-131.48,36.6-172,46.53-45.17,118.74-54.26,191.38-25L608,235a14,14,0,0,1,26.88,7.65L600.05,365.05a14,14,0,0,1-19.45,8.79c-66.78-31.79-133.82-26.73-175,13.21-34.24,33.24-45.13,87.22-29.15,144.39A14,14,0,0,1,363,549.18Z" fill="#fff"/><path d="M598,739.38A212.92,212.92,0,0,1,536.55,730a14,14,0,1,1,8.06-26.76c55.94,16.87,109.51,7.35,143.31-25.47,41.14-39.94,48.17-106.8,18.35-174.5a14,14,0,0,1,9.37-19.18l123.44-31.17A14,14,0,0,1,845.92,480L738,507.26c27.09,73.48,15.89,145.39-30.63,190.56C679.28,725.11,640.6,739.38,598,739.38Z" fill="#fff"/><path d="M603.14,935.18a13.9,13.9,0,0,1-6.24-1.48L403.47,837.16a14,14,0,0,1-6.9-17.26A113.83,113.83,0,0,0,399,750.47a14.06,14.06,0,0,1-.5-4.91l.47-6a14,14,0,0,1,8.31-11.72l213.36-93.66A79.69,79.69,0,0,0,639,620.87c39.59-38.44,31.91-110.79-17.11-161.28s-121.13-60.31-160.72-21.87A79.13,79.13,0,0,0,449,452.93l-8,16.9c-.12.29-.26.58-.41.87L347.35,668.06a14,14,0,0,1-11.81,8l-1,.06a13.84,13.84,0,0,1-5.59-.81,113.57,113.57,0,0,0-72.6-1.5,14,14,0,0,1-17.48-7.9L148.4,471.82a14,14,0,0,1-.52-10.52l72.74-208A14,14,0,0,1,247,262.55L176.13,465.16,259.54,644a142,142,0,0,1,67.6,1.41l88.1-186.55a109.3,109.3,0,0,1,9.37-19.7l.19-.32a106.93,106.93,0,0,1,16.91-21.19c50.64-49.18,140.46-39.11,200.23,22.45s67.17,151.61,16.53,200.79a107.9,107.9,0,0,1-25.2,18.19c-.22.12-.43.23-.66.33a104.94,104.94,0,0,1-12.07,5.31l-.24.09-192.71,84.6a142.41,142.41,0,0,1-1,68l177.74,88.71L809,841.29a14,14,0,0,1,8.44,26.64l-210,66.59A13.88,13.88,0,0,1,603.14,935.18Z" fill="#fff"/><path d="M931.11,779.68a77.43,77.43,0,0,0-133,52.8,78.59,78.59,0,0,0,.74,12A76.49,76.49,0,0,0,807.71,871,78,78,0,0,0,820,887.57,76.89,76.89,0,0,0,874.42,911h1.18a77.42,77.42,0,0,0,55.51-131.37ZM910,869.13a49.49,49.49,0,1,1-34.5-85h.76a49.49,49.49,0,0,1,33.74,85Z" fill="#fff"/><path d="M257.81,118.78a77.5,77.5,0,0,0-40.55,144.14h0a76.5,76.5,0,0,0,26.24,9.61,78.52,78.52,0,0,0,12,1.1h1.18a77.43,77.43,0,0,0,1.11-154.86Zm33.33,112.94a49.49,49.49,0,1,1-34.5-85h.75a49.49,49.49,0,0,1,33.75,85Z" fill="#fff"/><path d="M687.18,131a66.92,66.92,0,1,0-79.66,105.61h0a66.17,66.17,0,0,0,26.84,7.76h0c1.26.08,2.52.14,3.79.16h1a66.92,66.92,0,0,0,48-113.54Zm-20.86,74.58a39,39,0,1,1-27.18-66.94h.6a39,39,0,0,1,26.58,66.93Z" fill="#fff"/><path d="M952,404.31A66.93,66.93,0,0,0,837.1,449.94c0,1.16,0,2.32,0,3.46h0a66.36,66.36,0,0,0,6.8,27.1,67.41,67.41,0,0,0,12,17,66.5,66.5,0,0,0,47,20.29h1a66.92,66.92,0,0,0,48-113.54Zm-20.86,74.58A39,39,0,1,1,904,412h.59a39,39,0,0,1,26.58,66.93Z" fill="#fff"/></g></svg>