<svg id="Capa_1" data-name="Capa 1" xmlns="http://www.w3.org/2000/svg" xmlns:xlink="http://www.w3.org/1999/xlink" viewBox="0 0 1080 1080"><defs><linearGradient id="Degradado_sin_nombre_17" x1="540" x2="540" y2="1080" gradientUnits="userSpaceOnUse"><stop offset="0" stop-color="#06827f"/><stop offset="1" stop-color="#1c3661"/></linearGradient></defs><path d="M1080,540c0,298.23-241.77,540-540,540a538,538,0,0,1-228.19-50.44h0q-14.39-6.72-28.29-14.25A541.68,541.68,0,0,1,151,914.55q-9.83-10.17-19.08-20.86a539.66,539.66,0,0,1-74.2-110.52q-6.9-13.6-13-27.66A535.6,535.6,0,0,1,4.5,610q-1.8-13.86-2.89-27.94Q0,561.26,0,540q0-23.89,2-47.26,1.21-14.1,3.16-28A536.93,536.93,0,0,1,17,405.05q3.54-13.74,7.77-27.21a531.28,531.28,0,0,1,18.94-51q5.55-13,11.79-25.56C143.6,122.79,327.46,0,540,0,838.23,0,1080,241.77,1080,540Z" fill="url(#Degradado_sin_nombre_17)"/><path d="M413.07,727.78a14,14,0,0,1-12.23,13.87C311.11,755.72,221.46,819.86,151,914.55q-9.83-10.17-19.08-20.86c74.59-98.3,169.57-164.91,265-179.73A14.12,14.12,0,0,1,413.07,727.78Z" fill="#fff" stroke="#fff" stroke-miterlimit="10" stroke-width="3"/><path d="M1031.7,377.52h0a.06.06,0,0,1,0,0h0a14.16,14.16,0,0,0-2.68-5.69l0,0s0,0,0,0h0l0,0,0,0,0,0s0,0,0,0l0,0,0,0,0,0s0,0,0,0a13.9,13.9,0,0,0-3.77-3.17l0,0,0,0,0,0,0,0s0,0,0,0a14.13,14.13,0,0,0-5.18-1.65c-97.51-11.21-196.87-22.13-293-32.69l-.75-.09a14,14,0,0,0,7.19-14.17c-5.8-41.66-23-72.41-54.09-96.78-84.09-65.92-231.78-18.46-329.23,105.82-30.94,39.44-54.43,83.7-67.94,128A14,14,0,0,0,284,469c-3.9-3.52-16.29-14.53-36.88-31.34A1858.83,1858.83,0,0,0,55.5,301.3q-6.22,12.6-11.79,25.56A1839.05,1839.05,0,0,1,224.14,455.05a84.11,84.11,0,0,0-35.94,12.86,13.9,13.9,0,0,0-6.58-8.71c-54.55-31.31-107.4-58.28-156.85-81.36Q20.54,391.3,17,405.05c47.59,22.35,98.34,48.35,150.7,78.4a13.33,13.33,0,0,0,1.47.6,87.18,87.18,0,0,0-15.57,25.19,13.93,13.93,0,0,0-9.29-8.68C96,486.87,48.17,474.83,5.2,464.76q-1.93,13.88-3.16,28c41.74,9.82,88,21.49,134.64,34.72a13.91,13.91,0,0,0,12.18-2.24c-.1.49-.23,1-.32,1.47,0,.09,0,.19,0,.27a86.94,86.94,0,0,0-.24,28.83,14,14,0,0,0-11.24-2c-36.27,9.15-73.83,16.39-107,22.79-9.75,1.89-19.29,3.72-28.44,5.55Q2.71,596.16,4.5,610c9.85-2,20.22-4,30.85-6,33.49-6.47,71.46-13.8,108.5-23.14a13.83,13.83,0,0,0,9.08-7.44c.5,1.29,1,2.58,1.52,3.85a87.24,87.24,0,0,0,11.39,19,13.91,13.91,0,0,0-10,5.09c-21.38,26.29-43.19,55.16-59.48,77.21a38.38,38.38,0,0,0-9.92-1.4,38.75,38.75,0,1,0,20.68,71.52c.21-.13.41-.27.61-.41A38.66,38.66,0,0,0,119.05,695c16.09-21.77,37.55-50.16,58.54-76a13.92,13.92,0,0,0,3.08-7.87A88,88,0,0,0,215.94,628c.94.21,1.89.29,2.83.47a13.78,13.78,0,0,0-4,8c-3.74,27.43-8.26,55.06-11.41,73.52a32,32,0,1,0,27.52,4.92c3.2-18.68,7.79-46.75,11.59-74.67a13.88,13.88,0,0,0-2.72-10.35c1.63-.08,3.26-.09,4.89-.26A87.94,87.94,0,0,0,315.8,577.1a90.07,90.07,0,0,0,3.54-9.69,87.07,87.07,0,0,0-1.95-56.16c-.52-1.39-1.08-2.76-1.66-4.09A88.24,88.24,0,0,0,290,473.6c.37.15.71.34,1.1.46a13.8,13.8,0,0,0,4.08.62,14,14,0,0,0,13.37-9.92c12.51-41,34.36-82.14,63.19-118.9,87.94-112.15,218-157.47,290-101.06,25.39,19.89,38.84,44.13,43.64,78.62a13.85,13.85,0,0,0,4.73,8.59l-63.4-6.94a62,62,0,1,0-3.05,27.8l68.92,7.55,6.37.7c.43.09.89.09,1.34.14l3.3.37c37.82,4.15,76.15,8.36,114.67,12.62q-28.22,3-55.92,7.46l-.59.1c-30.72,5-62.48,10.16-92,23.57C605.25,437,539.06,542.2,524.88,667.79c-.35,3.92-.81,7.87-1.4,11.88A274.57,274.57,0,0,1,510.4,732c-.08.23-.21.59-.32.95l-.05.14h0C476.15,837.29,394.4,938.73,283.51,1015.31q13.9,7.53,28.29,14.25h0c109.56-79,190.35-181.86,224.81-287.86a.19.19,0,0,0,0-.07s0,0,0,0a302.93,302.93,0,0,0,14.5-57.92c.67-4.52,1.2-9,1.55-13.07,13-115.26,72.17-211.38,147.2-239.18.32-.11.65-.25,1-.39,26.26-12,55-16.68,85.36-21.62l.59-.09A980.54,980.54,0,0,1,901.52,397.6c9.1-.4,18.22-.58,27.33-.76,10.43-.22,21.22-.43,31.91-1,4.94-.25,9.87-.6,14.8-.94,6.75-.47,13.32-.93,19.78-1.14a14.49,14.49,0,0,0,2.81.33l2.77,0,1.86,0h.77a17.91,17.91,0,0,0,1.81,0l1.13,0h.23l11.11.16a14.7,14.7,0,0,0,8.21-2.53h0l0,0s0,0,0,0l0,0,0,0,0,0a14,14,0,0,0,4.73-5.92s0,0,0,0a14.57,14.57,0,0,0,1-4.29v-.08h0v0a.06.06,0,0,0,0,0v0s0,0,0,0c0-.31,0-.61,0-.91A13.64,13.64,0,0,0,1031.7,377.52ZM92.26,725c-.13.07-.25.16-.38.24A10.79,10.79,0,0,1,75.7,715.9a10.78,10.78,0,0,1,17.15-8.7A10.64,10.64,0,0,1,97,713.51a10.2,10.2,0,0,1,.28,2.39A10.69,10.69,0,0,1,92.26,725Zm119.86,19.53a3.91,3.91,0,0,1,0-7.82,3.46,3.46,0,0,1,.7.07h.05a3.91,3.91,0,0,1-.75,7.74Zm78-226.21c.39.89.75,1.8,1.11,2.76a60,60,0,0,1-23.12,71.21,60.49,60.49,0,0,1-26.53,9.55,59.35,59.35,0,0,1-19.51-1.1A60,60,0,0,1,176,532.12c0-.11,0-.23.07-.35A60,60,0,0,1,290.1,518.32ZM619,336a.24.24,0,0,1,0,.08.22.22,0,0,1,0,.08,33.62,33.62,0,0,1-1.44,6.66A34.13,34.13,0,1,1,619,336Z" fill="#fff" stroke="#fff" stroke-miterlimit="10" stroke-width="3"/></svg>