<?xml version="1.0" encoding="UTF-8"?>
<svg id="Capa_3" data-name="Capa 3" xmlns="http://www.w3.org/2000/svg" xmlns:xlink="http://www.w3.org/1999/xlink" viewBox="0 0 1080 1080">
  <defs>
    <style>
      .cls-1 {
        fill: url(#Degradado_sin_nombre_69);
      }

      .cls-2 {
        fill: #fff;
      }

      .cls-3 {
        fill: none;
        stroke: url(#Degradado_sin_nombre_28);
        stroke-miterlimit: 10;
        stroke-width: 4px;
      }
    </style>
    <linearGradient id="Degradado_sin_nombre_28" data-name="Degradado sin nombre 28" x1="286.44" y1="583.43" x2="286.45" y2="583.43" gradientUnits="userSpaceOnUse">
      <stop offset="0" stop-color="#fec92b"/>
      <stop offset=".24" stop-color="#ebad2d"/>
      <stop offset=".53" stop-color="#da922f"/>
      <stop offset=".79" stop-color="#cf8230"/>
      <stop offset="1" stop-color="#cc7d31"/>
    </linearGradient>
    <linearGradient id="Degradado_sin_nombre_69" data-name="Degradado sin nombre 69" x1="0" y1="540" x2="1080" y2="540" gradientUnits="userSpaceOnUse">
      <stop offset="0" stop-color="#fec92a"/>
      <stop offset="1" stop-color="#cc7c30"/>
    </linearGradient>
  </defs>
  <line class="cls-3" x1="286.45" y1="583.43" x2="286.44" y2="583.43"/>
  <path class="cls-1" d="M1080,540c0,298.23-241.77,540-540,540-53.21,0-104.62-7.69-153.17-22.04-19.45-5.73-38.43-12.54-56.89-20.35h-.01c-78.93-33.35-148.26-84.94-202.75-149.47-5.63-6.67-11.1-13.49-16.41-20.43C41.28,776.83,0,663.23,0,540c0-90.1,22.07-175.05,61.1-249.74,3.38-6.48,6.89-12.87,10.52-19.19C164.84,109.08,339.68,0,540,0c298.23,0,540,241.77,540,540Z"/>
  <g>
    <path class="cls-2" d="M720.13,637.73c-.8-45.69-18.57-89.06-50.05-122.12-34.99-36.76-84.14-57.34-134.86-56.46-36.4.63-71.35,11.98-101.06,32.81-4.92,3.45-6.12,10.24-2.66,15.17,3.45,4.92,10.24,6.11,15.17,2.67,26.14-18.32,56.89-28.31,88.93-28.86,44.64-.78,87.91,17.34,118.71,49.7,27.7,29.1,43.35,67.28,44.05,107.49.37,21.14-3.33,41.76-11,61.27-23.78,60.52-81.16,100.36-146.18,101.49-88.21,1.54-161.22-68.98-162.76-157.19-.09-5.06.06-10.19.45-15.23.46-6-4.02-11.23-10.02-11.7-6-.5-11.23,4.02-11.69,10.02-.44,5.72-.61,11.54-.51,17.28,1.75,100.22,84.7,180.33,184.91,178.58,73.87-1.29,139.06-46.55,166.08-115.3,8.71-22.18,12.92-45.6,12.5-69.61Z"/>
    <path class="cls-2" d="M793.09,514.11c-39.4.69-70.9,33.3-70.22,72.7.69,39.4,33.31,70.9,72.71,70.21,39.4-.68,70.89-33.3,70.21-72.7-.69-39.4-33.3-70.89-72.7-70.21ZM795.2,635.25c-27.4.47-50.07-21.43-50.55-48.82-.48-27.39,21.42-50.06,48.82-50.54,27.39-.48,50.06,21.42,50.54,48.81s-21.42,50.07-48.81,50.55Z"/>
    <path class="cls-2" d="M499.12,900.92l-10.74,26.63c-.59,1.44-1.47,2.73-2.59,3.81l-.78.72c-14.94,13.97-38.19,13.47-52.72-1.34l-177.22-180.63-18-13.89c-3.41-2.64-7.66-3.81-11.92-3.24-4.28.55-8.08,2.73-10.71,6.14l-16.99,22.03c-4.83,6.25-6.77,16.41-1.48,21.92.52.54,1.32,1.29,2.12,2.05l9.49,9.15c46.21,44.63,102.28,95.98,167.71,138.37l26.79,17.36s.1.06.15.09l18.51,11.99c.36.24.71.5,1.04.77,1.57,1.31,3.04,2.76,4.37,4.31.12.13.24.27.36.4,11.07,13.23,10.6,32.33-1.09,46.62l-18.8,26.87c-.18.26-.38.51-.58.76-5.51,6.56-12.47,12.4-19.21,16.15-.33.19-.65.37-.98.54-17.28,9.1-28.63,3.11-33.87-1.28l-22.04-19.61h-.01s-163.96-145.84-163.96-145.84l-29.6-27.46c-1.8,2.37-4.75,8.29-8.95,22.84l-.24.99c-5.63-6.67-11.1-13.49-16.41-20.43,4.38-12.06,10.11-22.05,19.6-25.16,3.57-1.18,10.77-2.22,18.74,3.92.25.2.51.41.75.64l30.75,28.54,185.61,165.09c2.08,1.72,6.32.16,9.46-1.5,4.47-2.37,9.45-6.49,13.38-11.09l18.76-26.81c.18-.26.37-.52.58-.76,5.18-6.18,5.8-13.51,1.63-18.77-.09-.09-.17-.19-.25-.29-.46-.55-.97-1.08-1.51-1.56l-18.02-11.68c-.05-.03-.1-.06-.15-.09l-26.65-17.27c-66.99-43.4-124.04-95.63-171-140.99l-9.35-9c-1.09-1.04-2.17-2.07-2.86-2.79-12.28-12.78-12.3-34.42-.03-50.3l16.99-22.03c6.19-8.02,15.13-13.14,25.17-14.43,10.04-1.3,19.99,1.41,28.01,7.6l18.59,14.35c.32.24.62.5.91.78l177.95,181.37c5.81,5.93,14.9,6.48,21.32,1.51l9.66-23.92c7.95-21.55,3.53-31.09-1.68-36.81l-37.38-24.36c-54.96-35.85-101.97-84.43-135.96-140.5-3.12-5.14-1.48-11.84,3.67-14.96,5.14-3.1,11.84-1.47,14.96,3.67,32.3,53.29,76.99,99.47,129.22,133.54l38.45,25.07c.67.43,1.28.93,1.83,1.5,14.48,14.75,16.83,34.61,7.2,60.7Z"/>
    <path class="cls-2" d="M923.78,195.03c-20.33.36-36.59,17.18-36.23,37.52.12,7.19,2.34,13.85,6.01,19.47l-51.93,66.64c-11.26,15.57-16.26,34.64-14.07,53.71l6.81,59.78c-15.46-5.12-31.62-7.56-48.26-7.27-49.36.86-94.6,26.32-120.99,68.11-3.21,5.08-1.7,11.81,3.39,15.02,1.86,1.18,3.95,1.72,5.99,1.68,3.55-.06,7-1.85,9.03-5.07,22.47-35.56,60.96-57.23,102.96-57.96,19.65-.34,38.5,3.78,56.03,12.24,3.57,1.72,7.8,1.38,11.04-.92,3.24-2.3,4.97-6.17,4.52-10.11l-8.89-77.97c-1.56-13.66,2.02-27.33,9.85-38.17l51.27-65.77c4.54,1.89,9.53,2.92,14.75,2.82,20.34-.35,36.59-17.18,36.24-37.51-.36-20.34-17.19-36.59-37.52-36.24ZM924.68,247.01c-8.32.14-15.21-6.51-15.36-14.84-.14-8.32,6.51-15.22,14.84-15.36,8.32-.15,15.21,6.51,15.36,14.84.14,8.32-6.51,15.21-14.84,15.36Z"/>
    <path class="cls-2" d="M521.63,576.04L71.62,271.07c-3.63,6.32-7.14,12.71-10.52,19.19l245.17,166.14-173.13-56.6c.3-2.38.49-4.79.45-7.25-.49-28.22-23.85-50.77-52.06-50.28-28.21.49-50.77,23.85-50.27,52.06.49,28.22,23.84,50.77,52.05,50.28,18.03-.32,33.71-9.98,42.58-24.27l245.7,80.33,102.31,69.33-288.48-27.1c-5.52-28.88-31.17-50.57-61.56-50.04-33.98.59-61.15,28.73-60.56,62.71.59,33.99,28.72,61.16,62.71,60.57,30.1-.53,54.82-22.67,59.67-51.34l179.49,16.86-72.67,25.89c-8.89-16.01-26.09-26.75-45.64-26.41-28.22.49-50.77,23.84-50.28,52.06.49,28.21,23.85,50.77,52.06,50.28,28.21-.5,50.77-23.85,50.27-52.06-.01-1-.12-1.98-.2-2.96l115.85-41.27,97.97,8.32c1.04.3,2.11.45,3.17.43,3.43-.06,6.77-1.73,8.83-4.78,3.38-4.98,2.08-11.75-2.9-15.12ZM82.93,422.83c-16.2.28-29.62-12.67-29.9-28.88-.28-16.2,12.68-29.62,28.88-29.9,16.21-.28,29.62,12.67,29.9,28.88.29,16.2-12.67,29.62-28.88,29.9ZM125.63,594.36c-21.98.38-40.17-17.19-40.56-39.17-.38-21.98,17.19-40.17,39.17-40.55,21.98-.38,40.17,17.18,40.56,39.16.38,21.98-17.19,40.18-39.17,40.56ZM248.26,661.7c-16.21.28-29.62-12.68-29.9-28.88-.29-16.21,12.67-29.62,28.87-29.9,16.21-.28,29.62,12.67,29.91,28.88.28,16.2-12.68,29.62-28.88,29.9Z"/>
    <path class="cls-2" d="M942.08,312.99c-18.54.32-33.36,15.67-33.04,34.21.04,2.07.29,4.09.68,6.06l-20.39,12.54c-11.64,7.15-19.31,19.02-21.06,32.54l-8.28,63.83c-.5,3.85,1.09,7.68,4.18,10.05,30.3,23.21,48.06,58.39,48.73,96.51,1.43,82.28-33.24,234.04-94.19,235.1-27.37.48-63.41-29.54-96.41-80.29-3.28-5.04-10.02-6.47-15.06-3.19-5.04,3.28-6.47,10.02-3.19,15.06,22.13,34.05,66.51,91.04,115.04,90.2,85.49-1.49,116.89-182.16,115.58-257.26-.74-42.68-19.71-82.22-52.3-109.45l7.51-57.77c.89-6.97,4.85-13.09,10.86-16.78l20-12.3c6.04,5.21,13.92,8.34,22.51,8.19,18.54-.32,33.36-15.67,33.04-34.21-.32-18.54-15.67-33.36-34.21-33.04ZM942.87,358.46c-6.53.12-11.94-5.11-12.05-11.64-.12-6.53,5.1-11.94,11.64-12.05,6.53-.12,11.94,5.1,12.05,11.64.12,6.53-5.11,11.94-11.64,12.05Z"/>
  </g>
</svg>