<svg id="Capa_1" data-name="Capa 1" xmlns="http://www.w3.org/2000/svg" viewBox="0 0 1025 1025"><line x1="512.5" y1="1016.49" x2="512.5" y2="152.49" fill="none" stroke="#fff" stroke-linecap="round" stroke-linejoin="round" stroke-width="17"/><path d="M444.47,305.6,480,340.55a23.92,23.92,0,0,1,7.15,17.07V1044" transform="translate(-27.91 -27.5)" fill="none" stroke="#fff" stroke-linecap="round" stroke-linejoin="round" stroke-width="17"/><path d="M591.74,1044v-687a25.54,25.54,0,0,1,8.51-19l36.11-32.31" transform="translate(-27.91 -27.5)" fill="none" stroke="#fff" stroke-linecap="round" stroke-linejoin="round" stroke-width="17"/><line x1="456.19" y1="477.01" x2="295.75" y2="398.69" fill="none" stroke="#fff" stroke-linecap="round" stroke-linejoin="round" stroke-width="17"/><line x1="565.18" y1="472.97" x2="728.5" y2="398.69" fill="none" stroke="#fff" stroke-linecap="round" stroke-linejoin="round" stroke-width="17"/><path d="M182.06,555.32,425.2,625.13a14.66,14.66,0,0,1,10.61,14.09v390.92A13.85,13.85,0,0,1,422,1044H180.41" transform="translate(-27.91 -27.5)" fill="none" stroke="#fff" stroke-linecap="round" stroke-linejoin="round" stroke-width="17"/><path d="M900.41,1044H662.7a14.41,14.41,0,0,1-14.42-14.4l-.39-406.44a14.12,14.12,0,0,1,10.68-13.71l242.33-61h0" transform="translate(-27.91 -27.5)" fill="none" stroke="#fff" stroke-linecap="round" stroke-linejoin="round" stroke-width="17"/><line x1="404.5" y1="748.97" x2="285.39" y2="694.9" fill="none" stroke="#fff" stroke-linecap="round" stroke-linejoin="round" stroke-width="17"/><line x1="620.5" y1="748.97" x2="739.61" y2="694.9" fill="none" stroke="#fff" stroke-linecap="round" stroke-linejoin="round" stroke-width="17"/><circle cx="512.5" cy="80.5" r="72" fill="none" stroke="#fff" stroke-linecap="round" stroke-linejoin="round" stroke-width="17"/><circle cx="368.5" cy="224.5" r="72" fill="none" stroke="#fff" stroke-linecap="round" stroke-linejoin="round" stroke-width="17"/><circle cx="656.5" cy="224.5" r="72" fill="none" stroke="#fff" stroke-linecap="round" stroke-linejoin="round" stroke-width="17"/><circle cx="224.5" cy="368.5" r="72" fill="none" stroke="#fff" stroke-linecap="round" stroke-linejoin="round" stroke-width="17"/><circle cx="800.5" cy="368.5" r="72" fill="none" stroke="#fff" stroke-linecap="round" stroke-linejoin="round" stroke-width="17"/><circle cx="80.5" cy="512.5" r="72" fill="none" stroke="#fff" stroke-linecap="round" stroke-linejoin="round" stroke-width="17"/><circle cx="944.5" cy="512.5" r="72" fill="none" stroke="#fff" stroke-linecap="round" stroke-linejoin="round" stroke-width="17"/><circle cx="224.5" cy="656.5" r="72" fill="none" stroke="#fff" stroke-linecap="round" stroke-linejoin="round" stroke-width="17"/><circle cx="800.5" cy="656.5" r="72" fill="none" stroke="#fff" stroke-linecap="round" stroke-linejoin="round" stroke-width="17"/></svg>