<svg xmlns="http://www.w3.org/2000/svg" xmlns:xlink="http://www.w3.org/1999/xlink" viewBox="0 0 1080 1080"><defs><linearGradient id="Degradado_sin_nombre_17" y1="540" x2="1080" y2="540" gradientUnits="userSpaceOnUse"><stop offset="0" stop-color="#036564"/><stop offset="1" stop-color="#024c4f"/></linearGradient></defs><g id="Capa_2" data-name="Capa 2"><circle cx="540" cy="540" r="540" fill="url(#Degradado_sin_nombre_17)"/></g><g id="Capa_1" data-name="Capa 1"><line x1="538.94" y1="972.84" x2="538.94" y2="172.21" fill="none" stroke="#fff" stroke-linecap="round" stroke-linejoin="round" stroke-width="16"/><path d="M450,288.6,482.94,321a22.21,22.21,0,0,1,6.63,15.82v636" fill="none" stroke="#fff" stroke-linecap="round" stroke-linejoin="round" stroke-width="16"/><path d="M586.5,972.84V336.18a23.64,23.64,0,0,1,7.89-17.63l33.46-29.95" fill="none" stroke="#fff" stroke-linecap="round" stroke-linejoin="round" stroke-width="16"/><line x1="486.76" y1="472.93" x2="338.09" y2="400.35" fill="none" stroke="#fff" stroke-miterlimit="10" stroke-width="16"/><line x1="587.76" y1="469.18" x2="739.1" y2="400.35" fill="none" stroke="#fff" stroke-miterlimit="10" stroke-width="16"/><path d="M206.87,520l225.3,64.69a13.58,13.58,0,0,1,9.83,13V960a12.83,12.83,0,0,1-12.83,12.83H205.34" fill="none" stroke="#fff" stroke-linecap="round" stroke-linejoin="round" stroke-width="16"/><path d="M872.53,972.85H652.26a13.35,13.35,0,0,1-13.36-13.35l-.37-376.62a13.1,13.1,0,0,1,9.89-12.71L873,513.6h0" fill="none" stroke="#fff" stroke-linecap="round" stroke-linejoin="round" stroke-width="16"/><line x1="438.86" y1="724.94" x2="328.49" y2="674.84" fill="none" stroke="#fff" stroke-miterlimit="10" stroke-width="16"/><line x1="639.02" y1="724.94" x2="749.39" y2="674.84" fill="none" stroke="#fff" stroke-miterlimit="10" stroke-width="16"/><circle cx="538.94" cy="105.5" r="66.72" fill="none" stroke="#fff" stroke-miterlimit="10" stroke-width="16"/><circle cx="405.5" cy="238.94" r="66.72" fill="none" stroke="#fff" stroke-miterlimit="10" stroke-width="16"/><circle cx="672.38" cy="238.94" r="66.72" fill="none" stroke="#fff" stroke-miterlimit="10" stroke-width="16"/><circle cx="272.06" cy="372.38" r="66.72" fill="none" stroke="#fff" stroke-miterlimit="10" stroke-width="16"/><circle cx="805.82" cy="372.38" r="66.72" fill="none" stroke="#fff" stroke-miterlimit="10" stroke-width="16"/><circle cx="138.62" cy="505.81" r="66.72" fill="none" stroke="#fff" stroke-miterlimit="10" stroke-width="16"/><circle cx="939.25" cy="505.81" r="66.72" fill="none" stroke="#fff" stroke-miterlimit="10" stroke-width="16"/><circle cx="272.06" cy="639.25" r="66.72" fill="none" stroke="#fff" stroke-miterlimit="10" stroke-width="16"/><circle cx="805.82" cy="639.25" r="66.72" fill="none" stroke="#fff" stroke-miterlimit="10" stroke-width="16"/></g></svg>